<!-- borrowed from reddit's font, and transformed to not be upside-down -->
<svg xmlns="http://www.w3.org/2000/svg" width="36px" height="36px" viewBox="0 0 156.7 156.7">
  <path fill="#fff" d="M132.075511695 81.33259646C132.075511695 87.92664215 126.72911924 93.27351254 120.134595615 93.27351254C116.77182145 93.27351254 113.739966345 91.878091205 111.57032165 89.6405484C103.41731467 95.27768987 92.49928918 98.858057655 80.436907095 99.207624015L86.707680685 127.49376823L106.708351575 123.0598007C106.74134476 118.14332253 110.732971695 114.16699735 115.65519292 114.16699735C120.60658385 114.16699735 124.613990475 118.17583778 124.613990475 123.12100772S120.60658385 132.075496025 115.65519292 132.075496025C112.15421719 132.075496025 109.130964915 130.059362485 107.66046861 127.12936238L85.57288279 132.025759445C84.44382795 132.27586048 83.330074865 131.564763715 83.0809297 130.43809855L76.155016915 99.20045499C64.161496645 98.78297485 53.321899505 95.16674627 45.238232275 89.5205162C43.06189649 91.82645072 39.985569925 93.27351254 36.56397058 93.27351254C29.968491085 93.27351254 24.624488305 87.927120085 24.624488305 81.33355233C24.624488305 76.59304826 27.39380823 72.50913286 31.397861475 70.58147214C30.9703447 68.737967155 30.736493455 66.848086805 30.736493455 64.918984445C30.736493455 45.991896595 52.158887775 30.593520375 78.49059124 30.593520375C104.82468438 30.593520375 126.24899044 45.991896595 126.24899044 64.918984445C126.24899044 66.89112446 126.003668755 68.82118269 125.557496845 70.702938145C129.42335636 72.67985751 132.075511695 76.69252142 132.075511695 81.33259646zM49.69610439 69.39407789C49.69610439 74.332078805 53.71259178 78.349522065 58.64915889 78.349522065C63.58763774 78.349522065 67.605081 74.332078805 67.605081 69.39407789C67.605081 64.457032845 63.58763774 60.44102339 58.64915889 60.44102339C53.712599615 60.441015555 49.69610439 64.457032845 49.69610439 69.39407789zM98.28324288 48.151488985C92.55380511 42.43017611 81.575050535 41.984967905 78.34664662 41.984967905C75.11729467 41.984967905 64.13757639 42.430183945 58.41531548 48.152444855C57.56601715 49.00222112 57.56601715 50.37947309 58.415793415 51.229249355C59.265091745 52.07806975 60.64282165 52.078547685 61.492597915 51.22877142C65.103561375 47.61732219 72.828573645 46.3357199 78.34664662 46.3357199S91.59116567 47.617800125 95.208828055 51.230205225C96.059568025 52.078547685 97.43681216 52.07711388 98.28515462 51.22781555C99.13398285 50.37756135 99.133504915 49.00030938 98.28324288 48.151488985zM98.04748773 60.441015555C93.11092062 60.441015555 89.094911165 64.457502945 89.094911165 69.394070055C89.094911165 74.33207097 93.11092062 78.34951423 98.04748773 78.34951423C102.98596658 78.34951423 107.003887775 74.33207097 107.003887775 69.394070055C107.00389561 64.45751078 102.98596658 60.441015555 98.04748773 60.441015555z" transform="scale(1 -1) translate(0 -156.7)"/>
</svg>